<?xml version="1.0" encoding="UTF-8"?>
<!DOCTYPE svg PUBLIC "-//W3C//DTD SVG 1.1//EN" "http://www.w3.org/Graphics/SVG/1.1/DTD/svg11.dtd">
<!-- Creator: CorelDRAW 2026 -->
<svg xmlns="http://www.w3.org/2000/svg" xml:space="preserve" width="21.087mm" height="21.087mm" version="1.1" style="shape-rendering:geometricPrecision; text-rendering:geometricPrecision; image-rendering:optimizeQuality; fill-rule:evenodd; clip-rule:evenodd"
viewBox="0 0 78.48 78.48"
 xmlns:xlink="http://www.w3.org/1999/xlink"
 xmlns:xodm="http://www.corel.com/coreldraw/odm/2003">
 <defs>
  <style type="text/css">
   <![CDATA[
    .fil0 {fill:#1E9F39}
   ]]>
  </style>
 </defs>
 <g id="Layer_x0020_1">
  <metadata id="CorelCorpID_0Corel-Layer"/>
  <path class="fil0" d="M7.85 31.39c-4.33,0 -7.85,3.52 -7.85,7.85 0,4.33 3.51,7.85 7.85,7.85l23.55 0 0 23.55c0,4.33 3.51,7.85 7.85,7.85 4.33,0 7.85,-3.51 7.85,-7.85l0 -23.55 23.55 -0c4.33,0 7.85,-3.51 7.85,-7.85 0,-4.33 -3.51,-7.85 -7.85,-7.85l-23.55 0 0 -23.55c0,-4.33 -3.52,-7.85 -7.85,-7.85 -4.33,0 -7.85,3.51 -7.85,7.85l0 23.55 -23.55 0z"/>
 </g>
</svg>
