<?xml version="1.0" encoding="UTF-8"?>
<!DOCTYPE svg PUBLIC "-//W3C//DTD SVG 1.1//EN" "http://www.w3.org/Graphics/SVG/1.1/DTD/svg11.dtd">
<!-- Creator: CorelDRAW 2026 -->
<svg xmlns="http://www.w3.org/2000/svg" xml:space="preserve" width="91.2037mm" height="40.64mm" version="1.1" style="shape-rendering:geometricPrecision; text-rendering:geometricPrecision; image-rendering:optimizeQuality; fill-rule:evenodd; clip-rule:evenodd"
viewBox="0 0 2542.35 1132.86"
 xmlns:xlink="http://www.w3.org/1999/xlink"
 xmlns:xodm="http://www.corel.com/coreldraw/odm/2003">
 <defs>
  <style type="text/css">
   <![CDATA[
    .fil0 {fill:#4FB88A}
    .fil2 {fill:#67DF97}
    .fil3 {fill:#75ED8C}
    .fil1 {fill:#83C58C}
    .fil7 {fill:#85F189}
    .fil4 {fill:#A6E340}
    .fil5 {fill:#B7E934}
    .fil6 {fill:#D5F263}
    .fil8 {fill:white}
   ]]>
  </style>
 </defs>
 <g id="Layer_x0020_1">
  <metadata id="CorelCorpID_0Corel-Layer"/>
  <rect class="fil0" x="-0" width="2542.35" height="1132.86"/>
  <path class="fil1" d="M1346.52 0.25l1164.63 0c0,321.6 -260.71,582.31 -582.31,582.31 -321.6,0 -582.31,-260.71 -582.31,-582.31z"/>
  <path class="fil2" d="M2542.35 699.87l0 432.99 -2542.35 0 0 -1093.33c1238.67,108.28 610.54,1087.02 1308.83,875.36 385.69,-116.9 840.23,-458.32 1233.52,-215.03z"/>
  <path class="fil3" d="M2542.35 813.08l0 319.78 -2542.35 0 0 -807.45c1238.67,79.96 610.54,802.79 1308.83,646.48 385.69,-86.34 840.23,-338.48 1233.52,-158.81z"/>
  <path class="fil4" d="M1587.6 0l752.86 0c0,207.9 -168.53,376.43 -376.43,376.43 -207.9,0 -376.43,-168.53 -376.43,-376.43z"/>
  <path class="fil5" d="M1702.25 0l512.01 0c0,141.39 -114.62,256.01 -256.01,256.01 -141.39,0 -256.01,-114.62 -256.01,-256.01z"/>
  <path class="fil6" d="M1799.47 -0l334.94 0c0,92.49 -74.98,167.47 -167.47,167.47 -92.49,0 -167.47,-74.98 -167.47,-167.47z"/>
  <path class="fil7" d="M2542.35 887.84l0 245.02 -2542.35 0 0 -618.68c1238.67,61.27 610.54,615.11 1308.83,495.34 385.69,-66.15 840.23,-259.35 1233.52,-121.68z"/>
  <circle class="fil8" cx="927" cy="278.17" r="14.8"/>
  <circle class="fil8" cx="1190.1" cy="43.41" r="7.36"/>
  <circle class="fil8" cx="2200.48" cy="355.95" r="14.8"/>
  <circle class="fil8" cx="2102.29" cy="511.66" r="10.55"/>
  <circle class="fil8" cx="928.52" cy="323.58" r="7.36"/>
  <circle class="fil8" cx="614.21" cy="42.23" r="7.36"/>
  <circle class="fil8" cx="1315.71" cy="596.44" r="7.36"/>
  <circle class="fil8" cx="1521.52" cy="186.19" r="7.36"/>
  <circle class="fil8" cx="2458.19" cy="142.86" r="10.7"/>
  <circle class="fil8" cx="2444.79" cy="91.73" r="8.26"/>
  <circle class="fil8" cx="476.26" cy="106.6" r="7.36"/>
 </g>
</svg>
