<?xml version="1.0" encoding="UTF-8"?>
<!DOCTYPE svg PUBLIC "-//W3C//DTD SVG 1.1//EN" "http://www.w3.org/Graphics/SVG/1.1/DTD/svg11.dtd">
<!-- Creator: CorelDRAW 2026 -->
<svg xmlns="http://www.w3.org/2000/svg" xml:space="preserve" width="21.4379mm" height="21.4379mm" version="1.1" style="shape-rendering:geometricPrecision; text-rendering:geometricPrecision; image-rendering:optimizeQuality; fill-rule:evenodd; clip-rule:evenodd"
viewBox="0 0 119.3 119.3"
 xmlns:xlink="http://www.w3.org/1999/xlink"
 xmlns:xodm="http://www.corel.com/coreldraw/odm/2003"
 data-name="Layer 1">
 <defs>
  <style type="text/css">
   <![CDATA[
    .fil0 {fill:none}
    .fil1 {fill:#8303F8;fill-rule:nonzero}
    .fil2 {fill:fuchsia;fill-rule:nonzero}
   ]]>
  </style>
    <mask id="id0">
  <linearGradient id="id1" gradientUnits="userSpaceOnUse" x1="141.02" y1="-52.86" x2="22.31" y2="119.3">
   <stop offset="0" style="stop-opacity:1; stop-color:white"/>
   <stop offset="1" style="stop-opacity:0; stop-color:white"/>
  </linearGradient>
     <rect style="fill:url(#id1)" x="14.55" y="14.55" width="90.2" height="90.2"/>
    </mask>
 </defs>
 <g id="Layer_x0020_1">
  <metadata id="CorelCorpID_0Corel-Layer"/>
  <rect class="fil0" x="-0" y="-0" width="119.3" height="119.3" rx="22.31" ry="22.31"/>
  <g id="_792736222720">
   <path class="fil1" d="M89.57 54.04c-2.52,0.09 -5.03,0.43 -7.48,1.02 -0.47,-9.99 -8.7,-17.85 -18.7,-17.85l-1.02 0c0.59,-2.45 0.93,-4.96 1.02,-7.48 0,-8.26 -6.7,-14.96 -14.96,-14.96 -8.26,0 -14.96,6.7 -14.96,14.96 0.08,2.52 0.43,5.03 1.02,7.48l-1.02 0c-10.33,0 -18.7,8.38 -18.7,18.7l0 29.92c0,10.33 8.38,18.7 18.7,18.7l4.58 0c0,0 0.01,0 0.01,0 1.59,0 2.89,-1.29 2.89,-2.89 0,-0.26 -0.03,-0.51 -0.1,-0.76 -1.31,-4.71 -3.64,-7.57 -3.64,-11.32 0,-6.2 5.02,-11.22 11.22,-11.22 6.2,0 11.22,5.03 11.22,11.22 0,3.74 -2.36,6.61 -3.64,11.33 -0.06,0.24 -0.1,0.49 -0.1,0.74 0,1.59 1.29,2.89 2.89,2.89 0,0 0.01,0 0.01,0l4.58 0c10.33,0 18.7,-8.38 18.7,-18.7l0 -2.89c2.45,0.59 4.96,0.93 7.48,1.02 8.26,0 14.96,-6.7 14.96,-14.96 0,-8.26 -6.7,-14.96 -14.96,-14.96l0 0z"/>
  </g>
  <g id="_792736233856">
   <path class="fil2" style="mask:url(#id0)" d="M89.57 54.04c-2.52,0.09 -5.03,0.43 -7.48,1.02 -0.47,-9.99 -8.7,-17.85 -18.7,-17.85l-1.02 0c0.59,-2.45 0.93,-4.96 1.02,-7.48 0,-8.26 -6.7,-14.96 -14.96,-14.96 -8.26,0 -14.96,6.7 -14.96,14.96 0.08,2.52 0.43,5.03 1.02,7.48l-1.02 0c-10.33,0 -18.7,8.38 -18.7,18.7l0 29.92c0,10.33 8.38,18.7 18.7,18.7l4.58 0c0,0 0.01,0 0.01,0 1.59,0 2.89,-1.29 2.89,-2.89 0,-0.26 -0.03,-0.51 -0.1,-0.76 -1.31,-4.71 -3.64,-7.57 -3.64,-11.32 0,-6.2 5.02,-11.22 11.22,-11.22 6.2,0 11.22,5.03 11.22,11.22 0,3.74 -2.36,6.61 -3.64,11.33 -0.06,0.24 -0.1,0.49 -0.1,0.74 0,1.59 1.29,2.89 2.89,2.89 0,0 0.01,0 0.01,0l4.58 0c10.33,0 18.7,-8.38 18.7,-18.7l0 -2.89c2.45,0.59 4.96,0.93 7.48,1.02 8.26,0 14.96,-6.7 14.96,-14.96 0,-8.26 -6.7,-14.96 -14.96,-14.96l0 0z"/>
  </g>
 </g>
</svg>
