<?xml version="1.0" encoding="UTF-8"?>
<!DOCTYPE svg PUBLIC "-//W3C//DTD SVG 1.1//EN" "http://www.w3.org/Graphics/SVG/1.1/DTD/svg11.dtd">
<!-- Creator: CorelDRAW 2026 -->
<svg xmlns="http://www.w3.org/2000/svg" xml:space="preserve" width="21.5379mm" height="21.5379mm" version="1.1" style="shape-rendering:geometricPrecision; text-rendering:geometricPrecision; image-rendering:optimizeQuality; fill-rule:evenodd; clip-rule:evenodd"
viewBox="0 0 75.74 75.74"
 xmlns:xlink="http://www.w3.org/1999/xlink"
 xmlns:xodm="http://www.corel.com/coreldraw/odm/2003">
 <defs>
  <style type="text/css">
   <![CDATA[
    .str0 {stroke:#CCCCCC;stroke-width:0.35;stroke-miterlimit:22.9256}
    .fil5 {fill:none;fill-rule:nonzero}
    .fil0 {fill:white}
    .fil1 {fill:#B43333;fill-rule:nonzero;fill-opacity:0.000000}
    .fil3 {fill:url(#id2);fill-rule:nonzero}
    .fil4 {fill:url(#id3);fill-rule:nonzero}
    .fil2 {fill:url(#id4);fill-rule:nonzero}
   ]]>
  </style>
   <clipPath id="id0" style="clip-rule:nonzero">
    <path d="M26.36 17.58c5.12,-8.87 17.91,-8.87 23.03,0l15.76 27.3c5.12,8.87 -1.28,19.95 -11.52,19.95l-31.52 0c-10.24,0 -16.63,-11.08 -11.52,-19.95l15.76 -27.3z"/>
   </clipPath>
   <clipPath id="id1" style="clip-rule:nonzero">
    <path d="M26.36 17.58c5.12,-8.87 17.91,-8.87 23.03,0l15.76 27.3c5.12,8.87 -1.28,19.95 -11.52,19.95l-31.52 0c-10.24,0 -16.63,-11.08 -11.52,-19.95l15.76 -27.3z"/>
   </clipPath>
  <linearGradient id="id2" gradientUnits="userSpaceOnUse" x1="44.17" y1="67.97" x2="9.53" y2="46.97">
   <stop offset="0" style="stop-opacity:1; stop-color:#A9A8FF"/>
   <stop offset="0.14902" style="stop-opacity:1; stop-color:#A9A8FF"/>
   <stop offset="0.329412" style="stop-opacity:1; stop-color:#6D97FF"/>
   <stop offset="0.478431" style="stop-opacity:1; stop-color:#3186FF"/>
   <stop offset="1" style="stop-opacity:1; stop-color:#3186FF"/>
  </linearGradient>
  <linearGradient id="id3" gradientUnits="userSpaceOnUse" x1="49.07" y1="17.58" x2="14.08" y2="34.02">
   <stop offset="0" style="stop-opacity:1; stop-color:#0EBC5F"/>
   <stop offset="0.54902" style="stop-opacity:1; stop-color:#0EBC5F"/>
   <stop offset="0.85098" style="stop-opacity:1; stop-color:#78C9FF"/>
   <stop offset="1" style="stop-opacity:1; stop-color:#78C9FF"/>
  </linearGradient>
  <linearGradient id="id4" gradientUnits="userSpaceOnUse" x1="71.82" y1="62.37" x2="40.32" y2="43.47">
   <stop offset="0" style="stop-opacity:1; stop-color:#FFE921"/>
   <stop offset="0.0901961" style="stop-opacity:1; stop-color:#FFE921"/>
   <stop offset="1" style="stop-opacity:1; stop-color:#FEC700"/>
  </linearGradient>
 </defs>
 <g id="Layer_x0020_1">
  <metadata id="CorelCorpID_0Corel-Layer"/>
  <rect class="fil0 str0" x="0.18" y="0.18" width="75.39" height="75.39" rx="14.1" ry="14.1"/>
  <g style="clip-path:url(#id0)">
   <polygon class="fil1" points="8.8,10.93 66.95,10.93 66.95,64.82 8.8,64.82 "/>
  </g>
  <g style="clip-path:url(#id1)">
   <g id="_792756989552">
    <polygon id="_1" class="fil2" points="76.68,64.82 44.53,64.82 37.87,53.3 53.95,25.45 "/>
    <polygon class="fil3" points="-0.94,64.82 21.79,25.45 21.79,25.45 15.14,36.97 28.44,36.97 44.52,64.82 -0.94,64.82 "/>
    <polygon class="fil4" points="37.87,-2.4 53.95,25.45 47.3,36.97 15.14,36.97 "/>
   </g>
  </g>
  <path class="fil5" d="M26.36 17.58c5.12,-8.87 17.91,-8.87 23.03,0l15.76 27.3c5.12,8.87 -1.28,19.95 -11.52,19.95l-31.52 0c-10.24,0 -16.63,-11.08 -11.52,-19.95l15.76 -27.3z"/>
 </g>
</svg>
